<?xml version="1.0" encoding="utf-8"?>
<!-- Generator: Adobe Illustrator 24.0.2, SVG Export Plug-In . SVG Version: 6.00 Build 0)  -->
<svg version="1.1" id="Layer_1" xmlns="http://www.w3.org/2000/svg" xmlns:xlink="http://www.w3.org/1999/xlink" x="0px" y="0px"
	 viewBox="0 0 1601.2 1435" style="enable-background:new 0 0 1601.2 1435;" xml:space="preserve">
<style type="text/css">
	.st0{fill:#EEEEEA;}
	.st1{fill:#BCBEC0;}
	.st2{fill:#A7A9AC;}
	.st3{font-family:'Arial-BoldMT';}
	.st4{font-size:11px;}
	.st5{fill:#009ADA;}
	.st6{font-family:'ArialMT';}
	.st7{font-size:8px;}
	.st8{fill:#F15D22;}
	.st9{fill:#FFFFFF;}
	.st10{fill:url(#SVGID_1_);}
	.st11{fill:#808285;}
	.st12{fill:#F1F2F2;}
	.st13{fill:#EF4136;}
	.st14{font-size:14px;}
	.st15{font-size:9px;}
	.st16{fill:url(#SVGID_2_);}
	.st17{font-size:30px;}
	.st18{fill:#007AB3;}
	.st19{fill:none;stroke:#EDEDED;stroke-width:10;stroke-miterlimit:10;}
	.st20{font-size:50px;}
	.st21{fill:#00A651;}
	.st22{font-size:15px;}
	.st23{font-size:28px;}
	.st24{font-size:40px;}
	.st25{letter-spacing:-3;}
	.st26{font-size:36px;}
	.st27{fill:none;stroke:#D1D3D4;stroke-linecap:round;stroke-miterlimit:10;}
	.st28{fill:none;stroke:#009ADA;stroke-width:10;stroke-linecap:round;stroke-miterlimit:10;}
	.st29{fill:none;stroke:#EF4136;stroke-width:10;stroke-linecap:round;stroke-miterlimit:10;}
	.st30{fill:none;stroke:#EDEDED;stroke-width:23;stroke-linecap:round;stroke-miterlimit:10;}
	.st31{fill:none;stroke:#009ADA;stroke-width:23;stroke-linecap:round;stroke-miterlimit:10;}
	.st32{fill:#EDEDED;}
	.st33{fill:none;stroke:#EDEDED;stroke-width:10;stroke-linejoin:round;stroke-miterlimit:10;}
	.st34{fill:url(#SVGID_3_);}
	.st35{font-size:10px;}
	.st36{fill:url(#SVGID_4_);}
	.st37{fill:#39B54A;}
	.st38{font-size:18px;}
	.st39{fill:none;stroke:#E6E7E8;stroke-miterlimit:10;}
	.st40{fill:#6D6E71;}
	.st41{fill:url(#SVGID_5_);}
	.st42{fill:url(#SVGID_6_);}
	.st43{font-size:7px;}
	.st44{fill:none;stroke:#E6E7E8;stroke-miterlimit:10;stroke-dasharray:1.003,3.0089;}
	.st45{fill:none;stroke:#009ADA;stroke-miterlimit:10;}
	.st46{fill:#FFFFFF;stroke:#009ADA;stroke-miterlimit:10;}
	.st47{fill:#E6E7E8;}
	.st48{fill:none;}
	.st49{fill:url(#SVGID_7_);}
	.st50{display:none;}
	.st51{display:inline;}
	.st52{fill:url(#SVGID_8_);}
	.st53{fill:url(#SVGID_9_);}
	.st54{fill:url(#SVGID_10_);}
	.st55{fill:url(#SVGID_11_);}
	.st56{fill:url(#SVGID_12_);}
	.st57{fill:url(#SVGID_13_);}
	.st58{display:inline;fill:none;}
	.st59{fill:url(#SVGID_14_);}
	.st60{fill:none;stroke:#F15D22;stroke-miterlimit:10;}
	.st61{fill:#FFFFFF;stroke:#F15D22;stroke-miterlimit:10;}
	.st62{font-family:'MyriadPro-Regular';}
	.st63{font-size:21px;}
</style>
<g id="UI_x5F_Base">
	<rect class="st0" width="1601.2" height="1435"/>
</g>
<g id="CMO-V2">
	<g>
		<g>
			<g>
				<g>
					<path class="st1" d="M965.9,39c3.9,0,7,3.1,7,7v32c0,3.9-3.1,7-7,7h-904c-3.9,0-7-3.1-7-7V46c0-3.9,3.1-7,7-7H965.9 M965.9,38
						h-904c-4.4,0-8,3.6-8,8v32c0,4.4,3.6,8,8,8h904c4.4,0,8-3.6,8-8V46C973.9,41.6,970.3,38,965.9,38L965.9,38z"/>
				</g>
			</g>
		</g>
		<text transform="matrix(1 0 0 1 71.9002 66.0277)" class="st2 st3 st4">TODAY   1W   2W   3W   </text>
		<text transform="matrix(1 0 0 1 196.6002 66.0277)" class="st5 st3 st4">1M   </text>
		<text transform="matrix(1 0 0 1 221.0002 66.0277)" class="st2 st3 st4">THIS YEAR</text>
		<text transform="matrix(1 0 0 1 851.3746 65.976)" class="st5 st3 st4">01/01/20  </text>
		<text transform="matrix(1 0 0 1 900.2746 64.976)" class="st2 st6 st7">3</text>
		<text transform="matrix(1 0 0 1 906.9746 65.976)" class="st8 st3 st4">  </text>
		<text transform="matrix(1 0 0 1 913.0746 65.976)" class="st5 st3 st4">01/07/20</text>
		<g>
			<path class="st9" d="M459.7,74h-150c-6.6,0-12-5.4-12-12s5.4-12,12-12h150c6.6,0,12,5.4,12,12S466.3,74,459.7,74z"/>
			<text transform="matrix(1 0 0 1 309.6598 64.7584)" class="st5 st3 st7">LOCATION</text>
			<polygon class="st5" points="460.8,59.4 457,64.4 453.2,59.4 			"/>
		</g>
	</g>
	<g>
		<g>
			<g>
				<g>
					
						<linearGradient id="SVGID_1_" gradientUnits="userSpaceOnUse" x1="520.9" y1="-292" x2="973.9" y2="-292" gradientTransform="matrix(1 0 0 1 0 988)">
						<stop  offset="0" style="stop-color:#EEEEEA"/>
						<stop  offset="0.5" style="stop-color:#A7A9AC"/>
						<stop  offset="1" style="stop-color:#EEEEEA"/>
					</linearGradient>
					<path class="st10" d="M965.9,714h-437c-4.4,0-8-3.6-8-8v-20c0-4.4,3.6-8,8-8h437c4.4,0,8,3.6,8,8v20
						C973.9,710.4,970.3,714,965.9,714z"/>
				</g>
			</g>
			<g>
				<g>
					<path class="st9" d="M965.9,712h-437c-4.4,0-8-3.6-8-8V452c0-4.4,3.6-8,8-8h437c4.4,0,8,3.6,8,8v252
						C973.9,708.4,970.3,712,965.9,712z"/>
				</g>
			</g>
		</g>
		<text transform="matrix(1 0 0 1 544.9001 473.3193)" class="st11 st3 st4">SERVICES / TESTS PROVIDED</text>
		<path class="st12" d="M938.9,517.2h-383c-6.6,0-12-5.4-12-12s5.4-12,12-12h383c6.6,0,12,5.4,12,12S945.5,517.2,938.9,517.2z"/>
		<path class="st12" d="M938.9,688h-383c-6.6,0-12-5.4-12-12s5.4-12,12-12h383c6.6,0,12,5.4,12,12S945.5,688,938.9,688z"/>
		<path class="st12" d="M938.9,653.8h-383c-6.6,0-12-5.4-12-12s5.4-12,12-12h383c6.6,0,12,5.4,12,12S945.5,653.8,938.9,653.8z"/>
		<path class="st12" d="M938.9,619.7h-383c-6.6,0-12-5.4-12-12s5.4-12,12-12h383c6.6,0,12,5.4,12,12S945.5,619.7,938.9,619.7z"/>
		<path class="st12" d="M938.9,585.5h-383c-6.6,0-12-5.4-12-12s5.4-12,12-12h383c6.6,0,12,5.4,12,12S945.5,585.5,938.9,585.5z"/>
		<path class="st12" d="M938.9,551.3h-383c-6.6,0-12-5.4-12-12s5.4-12,12-12h383c6.6,0,12,5.4,12,12S945.5,551.3,938.9,551.3z"/>
		<path class="st5" d="M901.2,517.2H555.9c-6.6,0-12-5.4-12-12s5.4-12,12-12h345.3c6.6,0,12,5.4,12,12S907.8,517.2,901.2,517.2z"/>
		<path class="st13" d="M701.8,688H555.9c-6.6,0-12-5.4-12-12s5.4-12,12-12h145.9c6.6,0,12,5.4,12,12S708.4,688,701.8,688z"/>
		<path class="st5" d="M576.7,653.8h-20.8c-6.6,0-12-5.4-12-12s5.4-12,12-12h20.8c6.6,0,12,5.4,12,12S583.4,653.8,576.7,653.8z"/>
		<path class="st5" d="M650.5,619.7h-94.6c-6.6,0-12-5.4-12-12s5.4-12,12-12h94.6c6.6,0,12,5.4,12,12S657.1,619.7,650.5,619.7z"/>
		<path class="st5" d="M691,585.5H555.9c-6.6,0-12-5.4-12-12s5.4-12,12-12H691c6.6,0,12,5.4,12,12S697.6,585.5,691,585.5z"/>
		<path class="st5" d="M745.6,551.3H555.9c-6.6,0-12-5.4-12-12s5.4-12,12-12h189.7c6.6,0,12,5.4,12,12S752.3,551.3,745.6,551.3z"/>
		<text transform="matrix(1 0 0 1 555.9006 507.9303)" class="st9 st3 st7">AUDIOMETRY</text>
		<text transform="matrix(1 0 0 1 555.9006 542.0964)" class="st9 st3 st7">SPIROMETRY</text>
		<text transform="matrix(1 0 0 1 728.9854 544.3039)" class="st9 st6 st14">52</text>
		<text transform="matrix(1 0 0 1 555.9006 576.2623)" class="st9 st3 st7">DRUG SCREEN</text>
		<text transform="matrix(1 0 0 1 673.4172 578.4698)" class="st9 st6 st14">31</text>
		<text transform="matrix(1 0 0 1 555.9006 610.4283)" class="st9 st3 st7">RESPIRATOR FIT</text>
		<text transform="matrix(1 0 0 1 633.813 612.6359)" class="st9 st6 st14">27</text>
		<text transform="matrix(1 0 0 1 555.9006 644.5943)" class="st9 st3 st7">DOT</text>
		<text transform="matrix(1 0 0 1 594.5898 646.8018)" class="st11 st6 st14">6</text>
		<text transform="matrix(1 0 0 1 555.9006 678.7603)" class="st9 st3 st7">OTHER</text>
		<text transform="matrix(1 0 0 1 685.1234 680.9678)" class="st9 st6 st14">42</text>
		<text transform="matrix(1 0 0 1 872.3981 471.5587)" class="st2 st3 st15">DATE RANGE: </text>
		<text transform="matrix(1 0 0 1 937.3981 471.5587)" class="st5 st3 st15">1M</text>
		<text transform="matrix(1 0 0 1 876.2518 510.1378)" class="st9 st6 st14">127</text>
	</g>
	<g>
		<g>
			<g>
				<g>
					
						<linearGradient id="SVGID_2_" gradientUnits="userSpaceOnUse" x1="53.9" y1="-574" x2="973.9" y2="-574" gradientTransform="matrix(1 0 0 1 0 988)">
						<stop  offset="0" style="stop-color:#EEEEEA"/>
						<stop  offset="0.5" style="stop-color:#A7A9AC"/>
						<stop  offset="1" style="stop-color:#EEEEEA"/>
					</linearGradient>
					<path class="st16" d="M965.9,432h-904c-4.4,0-8-3.6-8-8v-20c0-4.4,3.6-8,8-8h904c4.4,0,8,3.6,8,8v20
						C973.9,428.4,970.3,432,965.9,432z"/>
				</g>
			</g>
			<g>
				<g>
					<path class="st9" d="M965.9,430h-904c-4.4,0-8-3.6-8-8V108c0-4.4,3.6-8,8-8h904c4.4,0,8,3.6,8,8v314
						C973.9,426.4,970.3,430,965.9,430z"/>
				</g>
			</g>
		</g>
		<g>
			<g>
				<g>
					<polygon class="st5" points="667.2,192 184.9,192 168.9,208 152.9,192 53.9,192 53.9,140 667.2,140 					"/>
				</g>
			</g>
		</g>
		<g>
			<g>
				<g>
					<rect x="669.2" y="140" class="st5" width="139.3" height="52"/>
				</g>
			</g>
		</g>
		<g>
			<g>
				<g>
					<rect x="810.6" y="140" class="st5" width="68.7" height="52"/>
				</g>
			</g>
		</g>
		<g>
			<g>
				<g>
					<rect x="881.2" y="140" class="st13" width="92.7" height="52"/>
				</g>
			</g>
		</g>
		<text transform="matrix(1 0 0 1 65.9 156.1904)" class="st9 st3 st15">SCHEDULED</text>
		<text transform="matrix(1 0 0 1 65.9 182.1904)" class="st9 st6 st17">120</text>
		<text transform="matrix(1 0 0 1 131.015 391.0338)" class="st5 st6 st4">TOTAL VISITS</text>
		<text transform="matrix(1 0 0 1 681.2334 156.1904)" class="st9 st3 st15">RESCHEDULED</text>
		<text transform="matrix(1 0 0 1 681.2334 182.1904)" class="st9 st6 st17">30</text>
		<text transform="matrix(1 0 0 1 822.5667 156.1904)" class="st9 st3 st15">WALK-INS</text>
		<text transform="matrix(1 0 0 1 822.5667 182.1904)" class="st9 st6 st17">14</text>
		<text transform="matrix(1 0 0 1 893.2333 156.1904)" class="st9 st3 st15">FAILED</text>
		<text transform="matrix(1 0 0 1 893.2333 182.1904)" class="st9 st6 st17">16</text>
		<text transform="matrix(1 0 0 1 383.5921 391.0338)" class="st5 st6 st4">AVERAGE VISIT TIME (MIN.)</text>
		<text transform="matrix(1 0 0 1 429.8921 409.0338)" class="st13 st6 st4">WAIT TIME</text>
		<text transform="matrix(1 0 0 1 573.2904 391.0338)" class="st18 st6 st4">% OCC HEALTH (V. PERSONAL)</text>
		<circle class="st19" cx="168.9" cy="295" r="70"/>
		<path class="st5" d="M168.9,357c-34.2,0-62-27.8-62-62s27.8-62,62-62s62,27.8,62,62S203.1,357,168.9,357z"/>
		<text transform="matrix(1 0 0 1 124.3323 312.0611)" class="st9 st6 st20">164</text>
		<text transform="matrix(1 0 0 1 807.8373 391.0338)" class="st21 st6 st4">OUTSIDE COST OF</text>
		<text transform="matrix(1 0 0 1 800.0374 402.0338)" class="st21 st6 st4">SERVICES PROVIDED</text>
		<text transform="matrix(1 0 0 1 808.4651 294.0611)" class="st21 st6 st22">$</text>
		<text transform="matrix(1 0 0 1 817.3651 303.0611)" class="st21 st6 st23">42,605</text>
		<text transform="matrix(1 0 0 1 632.6526 308.0611)" class="st5 st6 st24">7</text>
		<text transform="matrix(1 0 0 1 656.4526 308.0611)" class="st5 st6 st24 st25">1</text>
		<text transform="matrix(1 0 0 1 677.1526 290.0611)" class="st5 st6 st14">%</text>
		<text transform="matrix(1 0 0 1 437.5074 287.6471)" class="st5 st6 st26">42</text>
		<text transform="matrix(1 0 0 1 437.5074 327.6471)" class="st13 st6 st26">12</text>
		<line class="st27" x1="437.6" y1="295" x2="481.2" y2="295"/>
		<line class="st27" x1="384" y1="396" x2="532.1" y2="396"/>
		<g>
			<circle class="st19" cx="458.9" cy="295" r="70"/>
			<circle class="st19" cx="458.9" cy="295" r="57"/>
			<path class="st28" d="M394,321.3c10.4,25.6,35.5,43.7,64.9,43.7c38.7,0,70-31.3,70-70s-31.3-70-70-70"/>
			<path class="st29" d="M512.6,275.9c-7.9-22.1-28.9-37.9-53.7-37.9"/>
		</g>
		<g>
			<circle class="st30" cx="658.9" cy="295" r="63.5"/>
			<path class="st31" d="M600.4,319.7c9.6,22.8,32.2,38.8,58.5,38.8c35.1,0,63.5-28.4,63.5-63.5s-28.4-63.5-63.5-63.5"/>
		</g>
		<text transform="matrix(1 0 0 1 71.9 123.9395)" class="st11 st3 st4">CLINIC VISIT ACTIVITY</text>
		<text transform="matrix(1 0 0 1 878.3283 123.0167)" class="st2 st3 st15">DATE RANGE: </text>
		<text transform="matrix(1 0 0 1 943.3283 123.0167)" class="st5 st3 st15">1M</text>
		<g>
			<path class="st32" d="M324.4,289.2l-14.5-14.5c-2.1-2.2-2.1-5.8,0.1-8c2.3-2.3,5.9-2.3,8.1-0.1l24.3,24.3c1,1,1.6,2.3,1.6,4.1
				c0,1.7-0.6,3.1-1.5,4.1l-24.4,24.3c-2.1,2.2-5.8,2.2-8-0.1c-2.3-2.2-2.3-5.9-0.1-8l14.6-14.6h-35c-3.1,0-5.7-2.6-5.7-5.7
				c0-3.2,2.6-5.8,5.7-5.8L324.4,289.2L324.4,289.2z"/>
		</g>
		<rect x="790.9" y="227" class="st33" width="136" height="136"/>
	</g>
	<g>
		<g>
			<g>
				<g>
					
						<linearGradient id="SVGID_3_" gradientUnits="userSpaceOnUse" x1="520.9" y1="272" x2="973.9" y2="272" gradientTransform="matrix(1 0 0 1 0 988)">
						<stop  offset="0" style="stop-color:#EEEEEA"/>
						<stop  offset="0.5" style="stop-color:#A7A9AC"/>
						<stop  offset="1" style="stop-color:#EEEEEA"/>
					</linearGradient>
					<path class="st34" d="M965.9,1278h-437c-4.4,0-8-3.6-8-8v-20c0-4.4,3.6-8,8-8h437c4.4,0,8,3.6,8,8v20
						C973.9,1274.4,970.3,1278,965.9,1278z"/>
				</g>
			</g>
			<g>
				<g>
					<path class="st9" d="M965.9,1276h-437c-4.4,0-8-3.6-8-8v-252c0-4.4,3.6-8,8-8h437c4.4,0,8,3.6,8,8v252
						C973.9,1272.4,970.3,1276,965.9,1276z"/>
				</g>
			</g>
		</g>
		<text transform="matrix(1 0 0 1 544.9001 1037.3184)" class="st11 st3 st4">PORTAL ACTIVITY</text>
		<text transform="matrix(1 0 0 1 872.3981 1035.5577)" class="st2 st3 st15">DATE RANGE: </text>
		<text transform="matrix(1 0 0 1 937.3981 1035.5577)" class="st5 st3 st15">1M</text>
		<text transform="matrix(1 0 0 1 611.5042 1236.7563)" class="st5 st6 st4">APPOINTMENTS </text>
		<text transform="matrix(1 0 0 1 641.1041 1247.7563)" class="st5 st6 st4">MADE</text>
		<circle class="st19" cx="657.4" cy="1140.7" r="70"/>
		<path class="st5" d="M657.4,1202.7c-34.2,0-62-27.8-62-62s27.8-62,62-62s62,27.8,62,62S691.6,1202.7,657.4,1202.7z"/>
		<text transform="matrix(1 0 0 1 627.6882 1148.7837)" class="st9 st6 st20">62</text>
		<text transform="matrix(1 0 0 1 618.4882 1164.7837)" class="st9 st3 st35">138 MIN. SAVED</text>
		<text transform="matrix(1 0 0 1 785.3113 1236.7563)" class="st5 st6 st4">QUESTIONNAIRES </text>
		<text transform="matrix(1 0 0 1 801.2113 1247.7563)" class="st5 st6 st4">COMPLETED </text>
		<circle class="st19" cx="837.4" cy="1140.7" r="70"/>
		<path class="st5" d="M837.4,1202.7c-34.2,0-62-27.8-62-62s27.8-62,62-62s62,27.8,62,62S871.6,1202.7,837.4,1202.7z"/>
		<text transform="matrix(1 0 0 1 807.6884 1148.7837)" class="st9 st6 st20">34</text>
		<text transform="matrix(1 0 0 1 798.4883 1164.7837)" class="st9 st3 st35">287 MIN. SAVED</text>
	</g>
	<g>
		<g>
			<g>
				<g>
					
						<linearGradient id="SVGID_4_" gradientUnits="userSpaceOnUse" x1="53.9" y1="-10" x2="506.9" y2="-10" gradientTransform="matrix(1 0 0 1 0 988)">
						<stop  offset="0" style="stop-color:#EEEEEA"/>
						<stop  offset="0.5" style="stop-color:#A7A9AC"/>
						<stop  offset="1" style="stop-color:#EEEEEA"/>
					</linearGradient>
					<path class="st36" d="M498.9,996h-437c-4.4,0-8-3.6-8-8v-20c0-4.4,3.6-8,8-8h437c4.4,0,8,3.6,8,8v20
						C506.9,992.4,503.3,996,498.9,996z"/>
				</g>
			</g>
			<g>
				<g>
					<path class="st9" d="M498.9,994h-437c-4.4,0-8-3.6-8-8V734c0-4.4,3.6-8,8-8h437c4.4,0,8,3.6,8,8v252
						C506.9,990.4,503.3,994,498.9,994z"/>
				</g>
			</g>
		</g>
		<text transform="matrix(1 0 0 1 77.9 755.3183)" class="st11 st3 st4">OCCUPATIONAL INJURY / ILLNESS ACTIVITY</text>
		<text transform="matrix(1 0 0 1 405.398 753.5582)" class="st2 st3 st15">DATE RANGE: </text>
		<text transform="matrix(1 0 0 1 470.398 753.5582)" class="st5 st3 st15">1M</text>
		<g>
			<path class="st37" d="M475,970H289c-3.9,0-7-3.1-7-7v-81.4c0-3.9,3.1-7,7-7h186.1c3.9,0,7,3.1,7,7V963
				C482,966.9,478.9,970,475,970z"/>
			<text transform="matrix(1 0 0 1 295.968 939.7413)" class="st9 st6 st38">$</text>
			<text transform="matrix(1 0 0 1 306.668 954.7413)" class="st9 st6 st24">64,287</text>
			<text transform="matrix(1 0 0 1 295.9681 894.8104)" class="st9 st3 st15">TOTAL WORKERS’ COMPENSATION</text>
			<text transform="matrix(1 0 0 1 295.9681 905.8104)" class="st9 st3 st15">COSTS — YTD</text>
		</g>
		<g>
			<path class="st39" d="M475,870.6H289c-3.9,0-7-3.1-7-7v-81.4c0-3.9,3.1-7,7-7h186.1c3.9,0,7,3.1,7,7v81.4
				C482,867.5,478.9,870.6,475,870.6z"/>
			<text transform="matrix(1 0 0 1 295.968 855.3271)" class="st5 st6 st24">18</text>
			<text transform="matrix(1 0 0 1 295.9681 795.3962)" class="st40 st3 st15">CASES W/WORK RESTRICTIONS</text>
		</g>
		<g>
			<path class="st39" d="M271,870.6H84.9c-3.9,0-7-3.1-7-7v-81.4c0-3.9,3.1-7,7-7H271c3.9,0,7,3.1,7,7v81.4
				C278,867.5,274.8,870.6,271,870.6z"/>
			<text transform="matrix(1 0 0 1 91.8999 855.3271)" class="st5 st6 st24">23</text>
			<text transform="matrix(1 0 0 1 91.9 795.3962)" class="st40 st3 st15">LOST TIME CASES</text>
		</g>
		<g>
			<path class="st39" d="M271,970H84.9c-3.9,0-7-3.1-7-7v-81.4c0-3.9,3.1-7,7-7H271c3.9,0,7,3.1,7,7V963
				C278,966.9,274.8,970,271,970z"/>
			<text transform="matrix(1 0 0 1 91.8999 954.7413)" class="st5 st6 st24">24</text>
			<text transform="matrix(1 0 0 1 91.9 894.8104)" class="st40 st3 st15">OSHA RECORDABLES</text>
		</g>
	</g>
	<g>
		<g>
			<g>
				<g>
					
						<linearGradient id="SVGID_5_" gradientUnits="userSpaceOnUse" x1="520.9" y1="-10" x2="973.9" y2="-10" gradientTransform="matrix(1 0 0 1 0 988)">
						<stop  offset="0" style="stop-color:#EEEEEA"/>
						<stop  offset="0.5" style="stop-color:#A7A9AC"/>
						<stop  offset="1" style="stop-color:#EEEEEA"/>
					</linearGradient>
					<path class="st41" d="M965.9,996h-437c-4.4,0-8-3.6-8-8v-20c0-4.4,3.6-8,8-8h437c4.4,0,8,3.6,8,8v20
						C973.9,992.4,970.3,996,965.9,996z"/>
				</g>
			</g>
			<g>
				<g>
					<path class="st9" d="M965.9,994h-437c-4.4,0-8-3.6-8-8V734c0-4.4,3.6-8,8-8h437c4.4,0,8,3.6,8,8v252
						C973.9,990.4,970.3,994,965.9,994z"/>
				</g>
			</g>
		</g>
		<text transform="matrix(1 0 0 1 544.9001 755.3183)" class="st11 st3 st4">DISABILITY / CASE MANAGEMENT ACTIVITY</text>
		<text transform="matrix(1 0 0 1 872.3981 753.5582)" class="st2 st3 st15">DATE RANGE: </text>
		<text transform="matrix(1 0 0 1 937.3981 753.5582)" class="st5 st3 st15">1M</text>
		<g>
			<path class="st37" d="M942,970H756c-3.9,0-7-3.1-7-7v-81.4c0-3.9,3.1-7,7-7h186.1c3.9,0,7,3.1,7,7V963
				C949,966.9,945.9,970,942,970z"/>
			<text transform="matrix(1 0 0 1 762.9681 954.7413)" class="st9 st6 st24">27</text>
			<text transform="matrix(1 0 0 1 762.9682 894.8104)" class="st9 st3 st15">DAYS SAVED — YTD</text>
		</g>
		<g>
			<path class="st13" d="M738,970H551.9c-3.9,0-7-3.1-7-7v-81.4c0-3.9,3.1-7,7-7H738c3.9,0,7,3.1,7,7V963
				C745,966.9,741.8,970,738,970z"/>
			<text transform="matrix(1 0 0 1 558.8999 954.7413)" class="st9 st6 st24">47</text>
			<text transform="matrix(1 0 0 1 558.9001 894.8104)" class="st9 st3 st15">TOTAL NUMBER LOST DAYS</text>
			<text transform="matrix(1 0 0 1 558.9001 905.8104)" class="st9 st3 st15">BEFORE RTW — YTD</text>
		</g>
		<g>
			<path class="st39" d="M942,870.6H756c-3.9,0-7-3.1-7-7v-81.4c0-3.9,3.1-7,7-7h186.1c3.9,0,7,3.1,7,7v81.4
				C949,867.5,945.9,870.6,942,870.6z"/>
			<text transform="matrix(1 0 0 1 762.9681 855.3271)" class="st5 st6 st24">2</text>
			<text transform="matrix(1 0 0 1 762.9682 795.3962)" class="st40 st3 st15">CASES W/WORK RESTRICTIONS</text>
		</g>
		<g>
			<path class="st39" d="M738,870.6H551.9c-3.9,0-7-3.1-7-7v-81.4c0-3.9,3.1-7,7-7H738c3.9,0,7,3.1,7,7v81.4
				C745,867.5,741.8,870.6,738,870.6z"/>
			<text transform="matrix(1 0 0 1 558.8999 855.3271)" class="st5 st6 st24">7</text>
			<text transform="matrix(1 0 0 1 558.9001 795.3962)" class="st40 st3 st15">LOST TIME CASES</text>
		</g>
	</g>
	<g>
		<g>
			<g>
				<g>
					
						<linearGradient id="SVGID_6_" gradientUnits="userSpaceOnUse" x1="53.9" y1="-292" x2="506.9" y2="-292" gradientTransform="matrix(1 0 0 1 0 988)">
						<stop  offset="0" style="stop-color:#EEEEEA"/>
						<stop  offset="0.5" style="stop-color:#A7A9AC"/>
						<stop  offset="1" style="stop-color:#EEEEEA"/>
					</linearGradient>
					<path class="st42" d="M498.9,714h-437c-4.4,0-8-3.6-8-8v-20c0-4.4,3.6-8,8-8h437c4.4,0,8,3.6,8,8v20
						C506.9,710.4,503.3,714,498.9,714z"/>
				</g>
			</g>
			<g>
				<g>
					<path class="st9" d="M498.9,712h-437c-4.4,0-8-3.6-8-8V452c0-4.4,3.6-8,8-8h437c4.4,0,8,3.6,8,8v252
						C506.9,708.4,503.3,712,498.9,712z"/>
				</g>
			</g>
		</g>
		<text transform="matrix(1 0 0 1 77.9 473.3188)" class="st11 st3 st4">VISIT TYPES</text>
		<text transform="matrix(1 0 0 1 405.398 471.5587)" class="st2 st3 st15">DATE RANGE: </text>
		<text transform="matrix(1 0 0 1 470.398 471.5587)" class="st5 st3 st15">1M</text>
		<g>
			<text transform="matrix(1 0 0 1 99.9989 692.9993)" class="st40 st6 st35">1/1/20</text>
			<text transform="matrix(1 0 0 1 158.688 692.9993)" class="st40 st6 st35">1/2/20</text>
			<text transform="matrix(1 0 0 1 217.377 692.9993)" class="st40 st6 st35">1/3/20</text>
			<text transform="matrix(1 0 0 1 276.066 692.9993)" class="st40 st6 st35">1/4/20</text>
			<text transform="matrix(1 0 0 1 334.755 692.9993)" class="st40 st6 st35">1/5/20</text>
			<text transform="matrix(1 0 0 1 393.4441 692.9993)" class="st40 st6 st35">1/6/20</text>
			<text transform="matrix(1 0 0 1 452.1331 692.9993)" class="st40 st6 st35">1/7/20</text>
			<text transform="matrix(1 0 0 1 81.7189 579.5342)" class="st40 st6 st43">30</text>
			<text transform="matrix(1 0 0 1 81.7189 613.8107)" class="st40 st6 st43">20</text>
			<text transform="matrix(1 0 0 1 81.7189 648.0864)" class="st40 st6 st43">10</text>
			<text transform="matrix(1 0 0 1 85.6119 682.363)" class="st40 st6 st43">0</text>
			<g>
				<g>
					<g>
						<line class="st39" x1="96.9" y1="611.4" x2="97.4" y2="611.4"/>
						<line class="st44" x1="100.4" y1="611.4" x2="480" y2="611.4"/>
						<line class="st39" x1="481.5" y1="611.4" x2="482" y2="611.4"/>
					</g>
				</g>
				<g>
					<g>
						<line class="st39" x1="96.9" y1="645.7" x2="97.4" y2="645.7"/>
						<line class="st44" x1="100.4" y1="645.7" x2="480" y2="645.7"/>
						<line class="st39" x1="481.5" y1="645.7" x2="482" y2="645.7"/>
					</g>
				</g>
				<g>
					<line class="st39" x1="172.6" y1="674" x2="172.6" y2="680"/>
					<line class="st39" x1="113.9" y1="674" x2="113.9" y2="680"/>
					<line class="st39" x1="231.3" y1="674" x2="231.3" y2="680"/>
					<line class="st39" x1="290" y1="674" x2="290" y2="680"/>
					<line class="st39" x1="348.7" y1="674" x2="348.7" y2="680"/>
					<line class="st39" x1="407.3" y1="674" x2="407.3" y2="680"/>
					<line class="st39" x1="466" y1="673" x2="466" y2="680"/>
					<line class="st39" x1="96.9" y1="680" x2="482" y2="680"/>
				</g>
				<g>
					<g>
						<line class="st39" x1="96.9" y1="577.2" x2="97.4" y2="577.2"/>
						<line class="st44" x1="100.4" y1="577.2" x2="480" y2="577.2"/>
						<line class="st39" x1="481.5" y1="577.2" x2="482" y2="577.2"/>
					</g>
				</g>
			</g>
			<polyline class="st39" points="113.9,603.9 172.6,604.7 231.3,648.9 290,603.2 348.7,607.4 407.8,595 466,623.9 			"/>
			<polyline class="st39" points="113.9,592.1 172.6,620.6 231.3,656.2 290,617 348.7,653.7 407.8,660.3 466,670.6 			"/>
			<polyline class="st39" points="113.9,645.7 172.6,629.7 231.3,595.8 290,657.9 348.7,633 407.8,645.4 466,634.7 			"/>
			<polyline class="st45" points="113.9,661.2 172.6,636.2 231.3,663.7 290,645.4 348.7,622.5 407.8,655.4 466,645.4 			"/>
			<circle class="st46" cx="172.6" cy="636.2" r="4"/>
		</g>
		<g>
			<text transform="matrix(1 0 0 1 89.9 512.3623)" class="st40 st3 st7">SURVEILLANCE</text>
			<text transform="matrix(1 0 0 1 89.9 540.3623)" class="st5 st6 st17">64</text>
			<text transform="matrix(1 0 0 1 293.3184 512.3623)" class="st40 st3 st7">PRE-PLACEMENT</text>
			<text transform="matrix(1 0 0 1 293.3184 540.3623)" class="st5 st6 st17">45</text>
			<text transform="matrix(1 0 0 1 395.0276 512.3623)" class="st40 st3 st7">OTHER</text>
			<text transform="matrix(1 0 0 1 395.0276 540.3623)" class="st5 st6 st17">37</text>
			<g>
				<path class="st47" d="M171.6,494.2c2.2,0,4,1.8,4,4v50c0,2.2-1.8,4-4,4H82.9c-2.2,0-4-1.8-4-4v-50c0-2.2,1.8-4,4-4H171.6
					 M171.6,493.2H82.9c-2.8,0-5,2.2-5,5v50c0,2.8,2.2,5,5,5h88.7c2.8,0,5-2.2,5-5v-50C176.6,495.4,174.4,493.2,171.6,493.2
					L171.6,493.2z"/>
			</g>
			<path class="st5" d="M273.3,553.2h-88.7c-2.8,0-5-2.2-5-5v-50c0-2.8,2.2-5,5-5h88.7c2.8,0,5,2.2,5,5v50
				C278.3,550.9,276.1,553.2,273.3,553.2z"/>
			<g>
				<path class="st47" d="M375,494.2c2.2,0,4,1.8,4,4v50c0,2.2-1.8,4-4,4h-88.7c-2.2,0-4-1.8-4-4v-50c0-2.2,1.8-4,4-4H375
					 M375,493.2h-88.7c-2.8,0-5,2.2-5,5v50c0,2.8,2.2,5,5,5H375c2.8,0,5-2.2,5-5v-50C380,495.4,377.8,493.2,375,493.2L375,493.2z"/>
			</g>
			<g>
				<path class="st47" d="M476.7,494.2c2.2,0,4,1.8,4,4v50c0,2.2-1.8,4-4,4H388c-2.2,0-4-1.8-4-4v-50c0-2.2,1.8-4,4-4H476.7
					 M476.7,493.2H388c-2.8,0-5,2.2-5,5v50c0,2.8,2.2,5,5,5h88.7c2.8,0,5-2.2,5-5v-50C481.7,495.4,479.5,493.2,476.7,493.2
					L476.7,493.2z"/>
			</g>
			<text transform="matrix(1 0 0 1 191.6092 512.3623)" class="st9 st3 st7">INJURIES</text>
			<text transform="matrix(1 0 0 1 191.6092 540.3623)" class="st9 st6 st17">18</text>
		</g>
	</g>
	<polygon class="st48" points="3.7,1126.4 0,1126.4 0,1126.4 	"/>
	<g>
		<g>
			<g>
				<g>
					
						<linearGradient id="SVGID_7_" gradientUnits="userSpaceOnUse" x1="53.9" y1="272" x2="506.9" y2="272" gradientTransform="matrix(1 0 0 1 0 988)">
						<stop  offset="0" style="stop-color:#EEEEEA"/>
						<stop  offset="0.5" style="stop-color:#A7A9AC"/>
						<stop  offset="1" style="stop-color:#EEEEEA"/>
					</linearGradient>
					<path class="st49" d="M498.9,1278h-437c-4.4,0-8-3.6-8-8v-20c0-4.4,3.6-8,8-8h437c4.4,0,8,3.6,8,8v20
						C506.9,1274.4,503.3,1278,498.9,1278z"/>
				</g>
			</g>
			<g>
				<g>
					<path class="st9" d="M498.9,1276h-437c-4.4,0-8-3.6-8-8v-252c0-4.4,3.6-8,8-8h437c4.4,0,8,3.6,8,8v252
						C506.9,1272.4,503.3,1276,498.9,1276z"/>
				</g>
			</g>
		</g>
		<text transform="matrix(1 0 0 1 77.9 1037.3179)" class="st11 st3 st4">MEDICAL / HEALTH SURVEILLANCE ACTIVITY</text>
		<text transform="matrix(1 0 0 1 405.398 1035.5577)" class="st2 st3 st15">DATE RANGE: </text>
		<text transform="matrix(1 0 0 1 470.398 1035.5577)" class="st5 st3 st15">1M</text>
		<g>
			<text transform="matrix(1 0 0 1 89.9 1075.3613)" class="st40 st3 st7">EXAMS WITHIN</text>
			<text transform="matrix(1 0 0 1 89.9 1084.3613)" class="st40 st3 st7">DUE DATE</text>
			<text transform="matrix(1 0 0 1 89.9 1113.3613)" class="st37 st6 st17">52</text>
			<g>
				<path class="st47" d="M175.6,1058.2v67H82.9c-2.2,0-4-1.8-4-4v-59c0-2.2,1.8-4,4-4H175.6 M176.6,1057.2H82.9c-2.8,0-5,2.2-5,5
					v59c0,2.8,2.2,5,5,5h93.7V1057.2L176.6,1057.2z"/>
			</g>
			<path class="st37" d="M273.3,1126.2h-93.7v-69h93.7c2.8,0,5,2.2,5,5v59C278.3,1123.9,276.1,1126.2,273.3,1126.2z"/>
			<text transform="matrix(1 0 0 1 191.6092 1075.3613)" class="st9 st3 st7">IN COMPLIANCE</text>
			<text transform="matrix(1 0 0 1 191.6092 1113.3613)" class="st9 st6 st17">79</text>
			<text transform="matrix(1 0 0 1 227.3092 1101.3613)" class="st9 st6 st14">%</text>
			<text transform="matrix(1 0 0 1 293.3184 1075.3613)" class="st40 st3 st7">EXAMS PAST DUE</text>
			<text transform="matrix(1 0 0 1 293.3184 1113.3613)" class="st13 st6 st17">14</text>
			<g>
				<path class="st47" d="M379,1058.2v67h-92.7c-2.2,0-4-1.8-4-4v-59c0-2.2,1.8-4,4-4H379 M380,1057.2h-93.7c-2.8,0-5,2.2-5,5v59
					c0,2.8,2.2,5,5,5H380L380,1057.2L380,1057.2z"/>
			</g>
			<path class="st13" d="M476.7,1126.2H383v-69h93.7c2.8,0,5,2.2,5,5v59C481.7,1123.9,479.5,1126.2,476.7,1126.2z"/>
			<text transform="matrix(1 0 0 1 395.0276 1075.3613)" class="st9 st3 st7">OUT OF</text>
			<text transform="matrix(1 0 0 1 395.0276 1084.3613)" class="st9 st3 st7">COMPLIANCE</text>
			<text transform="matrix(1 0 0 1 395.0276 1113.3613)" class="st9 st6 st17">21</text>
			<text transform="matrix(1 0 0 1 430.7276 1101.3613)" class="st9 st6 st14">%</text>
		</g>
		<g>
			<path class="st12" d="M472.9,1253.2h-383c-6.6,0-12-5.4-12-12s5.4-12,12-12h383c6.6,0,12,5.4,12,12S479.5,1253.2,472.9,1253.2z"
				/>
			<path class="st12" d="M472.9,1223h-383c-6.6,0-12-5.4-12-12s5.4-12,12-12h383c6.6,0,12,5.4,12,12S479.5,1223,472.9,1223z"/>
			<path class="st12" d="M472.9,1192.8h-383c-6.6,0-12-5.4-12-12s5.4-12,12-12h383c6.6,0,12,5.4,12,12S479.5,1192.8,472.9,1192.8z"
				/>
			<path class="st12" d="M472.9,1162.7h-383c-6.6,0-12-5.4-12-12s5.4-12,12-12h383c6.6,0,12,5.4,12,12S479.5,1162.7,472.9,1162.7z"
				/>
			<path class="st13" d="M206,1253.2H89.9c-6.6,0-12-5.4-12-12s5.4-12,12-12H206c6.6,0,12,5.4,12,12S212.7,1253.2,206,1253.2z"/>
			<path class="st5" d="M110.7,1223H89.9c-6.6,0-12-5.4-12-12s5.4-12,12-12h20.8c6.6,0,12,5.4,12,12S117.4,1223,110.7,1223z"/>
			<path class="st5" d="M258.2,1192.8H89.9c-6.6,0-12-5.4-12-12s5.4-12,12-12h168.3c6.6,0,12,5.4,12,12S264.8,1192.8,258.2,1192.8z"
				/>
			<path class="st5" d="M348.4,1162.7H89.9c-6.6,0-12-5.4-12-12s5.4-12,12-12h258.5c6.6,0,12,5.4,12,12S355,1162.7,348.4,1162.7z"/>
			<text transform="matrix(1 0 0 1 89.9006 1153.4329)" class="st9 st3 st7">ASBESTOS</text>
			<text transform="matrix(1 0 0 1 89.9006 1183.5989)" class="st9 st3 st7">CADMIUM</text>
			<text transform="matrix(1 0 0 1 89.9006 1213.7646)" class="st9 st3 st7">LEAD</text>
			<text transform="matrix(1 0 0 1 128.5898 1215.9722)" class="st11 st6 st14">7 (100%)</text>
			<text transform="matrix(1 0 0 1 223.9012 1246.1382)" class="st11 st6 st14">19 (84%)</text>
			<text transform="matrix(1 0 0 1 276.039 1185.8062)" class="st11 st6 st14">23 (92%)</text>
			<text transform="matrix(1 0 0 1 366.2457 1155.6412)" class="st11 st6 st14">39 (72%)</text>
			<text transform="matrix(1 0 0 1 89.9006 1243.9307)" class="st9 st3 st7">OTHER</text>
		</g>
	</g>
</g>
<g id="CMO" class="st50">
	<g class="st51">
		<g>
			<g>
				<g>
					<path class="st1" d="M965.9,89c3.9,0,7,3.1,7,7v32c0,3.9-3.1,7-7,7h-904c-3.9,0-7-3.1-7-7V96c0-3.9,3.1-7,7-7H965.9 M965.9,88
						h-904c-4.4,0-8,3.6-8,8v32c0,4.4,3.6,8,8,8h904c4.4,0,8-3.6,8-8V96C973.9,91.6,970.3,88,965.9,88L965.9,88z"/>
				</g>
			</g>
		</g>
		<text transform="matrix(1 0 0 1 71.9002 116.0277)" class="st2 st3 st4">TODAY   1W   2W   3W   </text>
		<text transform="matrix(1 0 0 1 196.6002 116.0277)" class="st5 st3 st4">1M   </text>
		<text transform="matrix(1 0 0 1 221.0002 116.0277)" class="st2 st3 st4">THIS YEAR</text>
		<text transform="matrix(1 0 0 1 851.3746 115.976)" class="st5 st3 st4">01/01/20  </text>
		<text transform="matrix(1 0 0 1 900.2746 114.976)" class="st2 st6 st7">3</text>
		<text transform="matrix(1 0 0 1 906.9746 115.976)" class="st8 st3 st4">  </text>
		<text transform="matrix(1 0 0 1 913.0746 115.976)" class="st5 st3 st4">01/07/20</text>
		<g>
			<path class="st9" d="M459.7,124h-150c-6.6,0-12-5.4-12-12s5.4-12,12-12h150c6.6,0,12,5.4,12,12S466.3,124,459.7,124z"/>
			<text transform="matrix(1 0 0 1 309.6598 114.7584)" class="st5 st3 st7">LOCATION</text>
			<polygon class="st5" points="460.8,109.4 457,114.4 453.2,109.4 			"/>
		</g>
	</g>
	<g class="st51">
		<g>
			<g>
				<g>
					
						<linearGradient id="SVGID_8_" gradientUnits="userSpaceOnUse" x1="520.9" y1="-242" x2="973.9" y2="-242" gradientTransform="matrix(1 0 0 1 0 988)">
						<stop  offset="0" style="stop-color:#EEEEEA"/>
						<stop  offset="0.5" style="stop-color:#A7A9AC"/>
						<stop  offset="1" style="stop-color:#EEEEEA"/>
					</linearGradient>
					<path class="st52" d="M965.9,764h-437c-4.4,0-8-3.6-8-8v-20c0-4.4,3.6-8,8-8h437c4.4,0,8,3.6,8,8v20
						C973.9,760.4,970.3,764,965.9,764z"/>
				</g>
			</g>
			<g>
				<g>
					<path class="st9" d="M965.9,762h-437c-4.4,0-8-3.6-8-8V502c0-4.4,3.6-8,8-8h437c4.4,0,8,3.6,8,8v252
						C973.9,758.4,970.3,762,965.9,762z"/>
				</g>
			</g>
		</g>
		<text transform="matrix(1 0 0 1 544.9001 523.3193)" class="st11 st3 st4">SERVICES / TESTS PROVIDED</text>
		<path class="st12" d="M938.9,567.2h-383c-6.6,0-12-5.4-12-12s5.4-12,12-12h383c6.6,0,12,5.4,12,12S945.5,567.2,938.9,567.2z"/>
		<path class="st12" d="M938.9,738h-383c-6.6,0-12-5.4-12-12s5.4-12,12-12h383c6.6,0,12,5.4,12,12S945.5,738,938.9,738z"/>
		<path class="st12" d="M938.9,703.8h-383c-6.6,0-12-5.4-12-12s5.4-12,12-12h383c6.6,0,12,5.4,12,12S945.5,703.8,938.9,703.8z"/>
		<path class="st12" d="M938.9,669.7h-383c-6.6,0-12-5.4-12-12s5.4-12,12-12h383c6.6,0,12,5.4,12,12S945.5,669.7,938.9,669.7z"/>
		<path class="st12" d="M938.9,635.5h-383c-6.6,0-12-5.4-12-12s5.4-12,12-12h383c6.6,0,12,5.4,12,12S945.5,635.5,938.9,635.5z"/>
		<path class="st12" d="M938.9,601.3h-383c-6.6,0-12-5.4-12-12s5.4-12,12-12h383c6.6,0,12,5.4,12,12S945.5,601.3,938.9,601.3z"/>
		<path class="st5" d="M901.2,567.2H555.9c-6.6,0-12-5.4-12-12s5.4-12,12-12h345.3c6.6,0,12,5.4,12,12S907.8,567.2,901.2,567.2z"/>
		<path class="st13" d="M701.8,738H555.9c-6.6,0-12-5.4-12-12s5.4-12,12-12h145.9c6.6,0,12,5.4,12,12S708.4,738,701.8,738z"/>
		<path class="st5" d="M576.7,703.8h-20.8c-6.6,0-12-5.4-12-12s5.4-12,12-12h20.8c6.6,0,12,5.4,12,12S583.4,703.8,576.7,703.8z"/>
		<path class="st5" d="M650.5,669.7h-94.6c-6.6,0-12-5.4-12-12s5.4-12,12-12h94.6c6.6,0,12,5.4,12,12S657.1,669.7,650.5,669.7z"/>
		<path class="st5" d="M691,635.5H555.9c-6.6,0-12-5.4-12-12s5.4-12,12-12H691c6.6,0,12,5.4,12,12S697.6,635.5,691,635.5z"/>
		<path class="st5" d="M745.6,601.3H555.9c-6.6,0-12-5.4-12-12s5.4-12,12-12h189.7c6.6,0,12,5.4,12,12S752.3,601.3,745.6,601.3z"/>
		<text transform="matrix(1 0 0 1 555.9006 557.9303)" class="st9 st3 st7">AUDIOMETRY</text>
		<text transform="matrix(1 0 0 1 555.9006 592.0964)" class="st9 st3 st7">SPIROMETRY</text>
		<text transform="matrix(1 0 0 1 728.9854 594.3039)" class="st9 st6 st14">52</text>
		<text transform="matrix(1 0 0 1 555.9006 626.2623)" class="st9 st3 st7">DRUG SCREEN</text>
		<text transform="matrix(1 0 0 1 673.4172 628.4698)" class="st9 st6 st14">31</text>
		<text transform="matrix(1 0 0 1 555.9006 660.4283)" class="st9 st3 st7">HEARING</text>
		<text transform="matrix(1 0 0 1 633.813 662.6359)" class="st9 st6 st14">27</text>
		<text transform="matrix(1 0 0 1 555.9006 694.5943)" class="st9 st3 st7">DOT</text>
		<text transform="matrix(1 0 0 1 594.5898 696.8018)" class="st11 st6 st14">6</text>
		<text transform="matrix(1 0 0 1 555.9006 728.7603)" class="st9 st3 st7">OTHER</text>
		<text transform="matrix(1 0 0 1 685.1234 730.9678)" class="st9 st6 st14">42</text>
		<text transform="matrix(1 0 0 1 872.3981 521.5587)" class="st2 st3 st15">DATE RANGE: </text>
		<text transform="matrix(1 0 0 1 937.3981 521.5587)" class="st5 st3 st15">1M</text>
		<text transform="matrix(1 0 0 1 876.2518 560.1378)" class="st9 st6 st14">127</text>
	</g>
	<g class="st51">
		<g>
			<g>
				<g>
					
						<linearGradient id="SVGID_9_" gradientUnits="userSpaceOnUse" x1="53.9" y1="-524" x2="973.9" y2="-524" gradientTransform="matrix(1 0 0 1 0 988)">
						<stop  offset="0" style="stop-color:#EEEEEA"/>
						<stop  offset="0.5" style="stop-color:#A7A9AC"/>
						<stop  offset="1" style="stop-color:#EEEEEA"/>
					</linearGradient>
					<path class="st53" d="M965.9,482h-904c-4.4,0-8-3.6-8-8v-20c0-4.4,3.6-8,8-8h904c4.4,0,8,3.6,8,8v20
						C973.9,478.4,970.3,482,965.9,482z"/>
				</g>
			</g>
			<g>
				<g>
					<path class="st9" d="M965.9,480h-904c-4.4,0-8-3.6-8-8V158c0-4.4,3.6-8,8-8h904c4.4,0,8,3.6,8,8v314
						C973.9,476.4,970.3,480,965.9,480z"/>
				</g>
			</g>
		</g>
		<g>
			<g>
				<g>
					<polygon class="st5" points="667.2,242 184.9,242 168.9,258 152.9,242 53.9,242 53.9,190 667.2,190 					"/>
				</g>
			</g>
		</g>
		<g>
			<g>
				<g>
					<rect x="669.2" y="190" class="st5" width="139.3" height="52"/>
				</g>
			</g>
		</g>
		<g>
			<g>
				<g>
					<rect x="810.6" y="190" class="st5" width="68.7" height="52"/>
				</g>
			</g>
		</g>
		<g>
			<g>
				<g>
					<rect x="881.2" y="190" class="st13" width="92.7" height="52"/>
				</g>
			</g>
		</g>
		<text transform="matrix(1 0 0 1 65.9 206.1904)" class="st9 st3 st15">SCHEDULED</text>
		<text transform="matrix(1 0 0 1 65.9 232.1904)" class="st9 st6 st17">120</text>
		<text transform="matrix(1 0 0 1 131.015 441.0338)" class="st5 st6 st4">TOTAL VISITS</text>
		<text transform="matrix(1 0 0 1 681.2334 206.1904)" class="st9 st3 st15">RESCHEDULED</text>
		<text transform="matrix(1 0 0 1 681.2334 232.1904)" class="st9 st6 st17">30</text>
		<text transform="matrix(1 0 0 1 822.5667 206.1904)" class="st9 st3 st15">WALK-INS</text>
		<text transform="matrix(1 0 0 1 822.5667 232.1904)" class="st9 st6 st17">14</text>
		<text transform="matrix(1 0 0 1 893.2333 206.1904)" class="st9 st3 st15">FAILED</text>
		<text transform="matrix(1 0 0 1 893.2333 232.1904)" class="st9 st6 st17">16</text>
		<text transform="matrix(1 0 0 1 383.5921 441.0338)" class="st5 st6 st4">AVERAGE VISIT TIME (MIN.)</text>
		<text transform="matrix(1 0 0 1 429.8921 459.0338)" class="st13 st6 st4">WAIT TIME</text>
		<text transform="matrix(1 0 0 1 573.2904 441.0338)" class="st18 st6 st4">% OCC HEALTH (V. PERSONAL)</text>
		<circle class="st19" cx="168.9" cy="345" r="70"/>
		<path class="st5" d="M168.9,407c-34.2,0-62-27.8-62-62s27.8-62,62-62s62,27.8,62,62S203.1,407,168.9,407z"/>
		<text transform="matrix(1 0 0 1 124.3323 362.0611)" class="st9 st6 st20">164</text>
		<text transform="matrix(1 0 0 1 807.8373 441.0338)" class="st21 st6 st4">OUTSIDE COST OF</text>
		<text transform="matrix(1 0 0 1 800.0374 452.0338)" class="st21 st6 st4">SERVICES PROVIDED</text>
		<text transform="matrix(1 0 0 1 808.4651 344.0611)" class="st21 st6 st22">$</text>
		<text transform="matrix(1 0 0 1 817.3651 353.0611)" class="st21 st6 st23">42,605</text>
		<text transform="matrix(1 0 0 1 632.6526 358.0611)" class="st5 st6 st24">7</text>
		<text transform="matrix(1 0 0 1 656.4526 358.0611)" class="st5 st6 st24 st25">1</text>
		<text transform="matrix(1 0 0 1 677.1526 340.0611)" class="st5 st6 st14">%</text>
		<text transform="matrix(1 0 0 1 437.5074 337.6471)" class="st5 st6 st26">42</text>
		<text transform="matrix(1 0 0 1 437.5074 377.6471)" class="st13 st6 st26">12</text>
		<line class="st27" x1="437.6" y1="345" x2="481.2" y2="345"/>
		<line class="st27" x1="384" y1="446" x2="532.1" y2="446"/>
		<g>
			<circle class="st19" cx="458.9" cy="345" r="70"/>
			<circle class="st19" cx="458.9" cy="345" r="57"/>
			<path class="st28" d="M394,371.3c10.4,25.6,35.5,43.7,64.9,43.7c38.7,0,70-31.3,70-70s-31.3-70-70-70"/>
			<path class="st29" d="M512.6,325.9c-7.9-22.1-28.9-37.9-53.7-37.9"/>
		</g>
		<g>
			<circle class="st30" cx="658.9" cy="345" r="63.5"/>
			<path class="st31" d="M600.4,369.7c9.6,22.8,32.2,38.8,58.5,38.8c35.1,0,63.5-28.4,63.5-63.5s-28.4-63.5-63.5-63.5"/>
		</g>
		<text transform="matrix(1 0 0 1 71.9 173.9395)" class="st11 st3 st4">CLINIC VISIT ACTIVITY</text>
		<text transform="matrix(1 0 0 1 878.3283 173.0167)" class="st2 st3 st15">DATE RANGE: </text>
		<text transform="matrix(1 0 0 1 943.3283 173.0167)" class="st5 st3 st15">1M</text>
		<g>
			<path class="st32" d="M324.4,339.2l-14.5-14.5c-2.1-2.2-2.1-5.8,0.1-8c2.3-2.3,5.9-2.3,8.1-0.1l24.3,24.3c1,1,1.6,2.3,1.6,4.1
				c0,1.7-0.6,3.1-1.5,4.1l-24.4,24.3c-2.1,2.2-5.8,2.2-8-0.1c-2.3-2.2-2.3-5.9-0.1-8l14.6-14.6h-35c-3.1,0-5.7-2.6-5.7-5.7
				c0-3.2,2.6-5.8,5.7-5.8L324.4,339.2L324.4,339.2z"/>
		</g>
		<rect x="790.9" y="277" class="st33" width="136" height="136"/>
	</g>
	<g class="st51">
		<g>
			<g>
				<g>
					
						<linearGradient id="SVGID_10_" gradientUnits="userSpaceOnUse" x1="520.9" y1="322" x2="973.9" y2="322" gradientTransform="matrix(1 0 0 1 0 988)">
						<stop  offset="0" style="stop-color:#EEEEEA"/>
						<stop  offset="0.5" style="stop-color:#A7A9AC"/>
						<stop  offset="1" style="stop-color:#EEEEEA"/>
					</linearGradient>
					<path class="st54" d="M965.9,1328h-437c-4.4,0-8-3.6-8-8v-20c0-4.4,3.6-8,8-8h437c4.4,0,8,3.6,8,8v20
						C973.9,1324.4,970.3,1328,965.9,1328z"/>
				</g>
			</g>
			<g>
				<g>
					<path class="st9" d="M965.9,1326h-437c-4.4,0-8-3.6-8-8v-252c0-4.4,3.6-8,8-8h437c4.4,0,8,3.6,8,8v252
						C973.9,1322.4,970.3,1326,965.9,1326z"/>
				</g>
			</g>
		</g>
		<text transform="matrix(1 0 0 1 544.9001 1087.3184)" class="st11 st3 st4">PORTAL ACTIVITY</text>
		<text transform="matrix(1 0 0 1 872.3981 1085.5577)" class="st2 st3 st15">DATE RANGE: </text>
		<text transform="matrix(1 0 0 1 937.3981 1085.5577)" class="st5 st3 st15">1M</text>
		<text transform="matrix(1 0 0 1 611.5042 1286.7563)" class="st5 st6 st4">APPOINTMENTS </text>
		<text transform="matrix(1 0 0 1 641.1041 1297.7563)" class="st5 st6 st4">MADE</text>
		<circle class="st19" cx="657.4" cy="1190.7" r="70"/>
		<path class="st5" d="M657.4,1252.7c-34.2,0-62-27.8-62-62s27.8-62,62-62s62,27.8,62,62S691.6,1252.7,657.4,1252.7z"/>
		<text transform="matrix(1 0 0 1 627.6882 1198.7837)" class="st9 st6 st20">62</text>
		<text transform="matrix(1 0 0 1 618.4882 1214.7837)" class="st9 st3 st35">138 MIN. SAVED</text>
		<text transform="matrix(1 0 0 1 785.3113 1286.7563)" class="st5 st6 st4">QUESTIONNAIRES </text>
		<text transform="matrix(1 0 0 1 801.2113 1297.7563)" class="st5 st6 st4">COMPLETED </text>
		<circle class="st19" cx="837.4" cy="1190.7" r="70"/>
		<path class="st5" d="M837.4,1252.7c-34.2,0-62-27.8-62-62s27.8-62,62-62s62,27.8,62,62S871.6,1252.7,837.4,1252.7z"/>
		<text transform="matrix(1 0 0 1 807.6884 1198.7837)" class="st9 st6 st20">34</text>
		<text transform="matrix(1 0 0 1 798.4883 1214.7837)" class="st9 st3 st35">287 MIN. SAVED</text>
	</g>
	<g class="st51">
		<g>
			<g>
				<g>
					
						<linearGradient id="SVGID_11_" gradientUnits="userSpaceOnUse" x1="53.9" y1="40" x2="506.9" y2="40" gradientTransform="matrix(1 0 0 1 0 988)">
						<stop  offset="0" style="stop-color:#EEEEEA"/>
						<stop  offset="0.5" style="stop-color:#A7A9AC"/>
						<stop  offset="1" style="stop-color:#EEEEEA"/>
					</linearGradient>
					<path class="st55" d="M498.9,1046h-437c-4.4,0-8-3.6-8-8v-20c0-4.4,3.6-8,8-8h437c4.4,0,8,3.6,8,8v20
						C506.9,1042.4,503.3,1046,498.9,1046z"/>
				</g>
			</g>
			<g>
				<g>
					<path class="st9" d="M498.9,1044h-437c-4.4,0-8-3.6-8-8V784c0-4.4,3.6-8,8-8h437c4.4,0,8,3.6,8,8v252
						C506.9,1040.4,503.3,1044,498.9,1044z"/>
				</g>
			</g>
		</g>
		<text transform="matrix(1 0 0 1 77.9 805.3183)" class="st11 st3 st4">MEDICAL/HEALTH SURVEILLANCE ACTIVITY</text>
		<text transform="matrix(1 0 0 1 405.398 803.5582)" class="st2 st3 st15">DATE RANGE: </text>
		<text transform="matrix(1 0 0 1 470.398 803.5582)" class="st5 st3 st15">1M</text>
		<g>
			<path class="st37" d="M475,1020H289c-3.9,0-7-3.1-7-7v-81.4c0-3.9,3.1-7,7-7h186.1c3.9,0,7,3.1,7,7v81.4
				C482,1016.9,478.9,1020,475,1020z"/>
			<text transform="matrix(1 0 0 1 295.968 989.7413)" class="st9 st6 st38">$</text>
			<text transform="matrix(1 0 0 1 306.668 1004.7413)" class="st9 st6 st24">64,287</text>
			<text transform="matrix(1 0 0 1 295.9681 944.8104)" class="st9 st3 st15">TOTAL WORKERS’ COMPENSATION</text>
			<text transform="matrix(1 0 0 1 295.9681 955.8104)" class="st9 st3 st15">COSTS — YTD</text>
		</g>
		<g>
			<path class="st39" d="M475,920.6H289c-3.9,0-7-3.1-7-7v-81.4c0-3.9,3.1-7,7-7h186.1c3.9,0,7,3.1,7,7v81.4
				C482,917.5,478.9,920.6,475,920.6z"/>
			<text transform="matrix(1 0 0 1 295.968 905.3271)" class="st5 st6 st24">18</text>
			<text transform="matrix(1 0 0 1 295.9681 845.3962)" class="st40 st3 st15">CASES W/WORK RESTRICTIONS</text>
		</g>
		<g>
			<path class="st39" d="M271,920.6H84.9c-3.9,0-7-3.1-7-7v-81.4c0-3.9,3.1-7,7-7H271c3.9,0,7,3.1,7,7v81.4
				C278,917.5,274.8,920.6,271,920.6z"/>
			<text transform="matrix(1 0 0 1 91.8999 905.3271)" class="st5 st6 st24">23</text>
			<text transform="matrix(1 0 0 1 91.9 845.3962)" class="st40 st3 st15">LOST TIME CASES</text>
		</g>
		<g>
			<path class="st39" d="M271,1020H84.9c-3.9,0-7-3.1-7-7v-81.4c0-3.9,3.1-7,7-7H271c3.9,0,7,3.1,7,7v81.4
				C278,1016.9,274.8,1020,271,1020z"/>
			<text transform="matrix(1 0 0 1 91.8999 1004.7413)" class="st5 st6 st24">24</text>
			<text transform="matrix(1 0 0 1 91.9 944.8104)" class="st40 st3 st15">OSHA RECORDABLES</text>
		</g>
	</g>
	<g class="st51">
		<g>
			<g>
				<g>
					
						<linearGradient id="SVGID_12_" gradientUnits="userSpaceOnUse" x1="520.9" y1="40" x2="973.9" y2="40" gradientTransform="matrix(1 0 0 1 0 988)">
						<stop  offset="0" style="stop-color:#EEEEEA"/>
						<stop  offset="0.5" style="stop-color:#A7A9AC"/>
						<stop  offset="1" style="stop-color:#EEEEEA"/>
					</linearGradient>
					<path class="st56" d="M965.9,1046h-437c-4.4,0-8-3.6-8-8v-20c0-4.4,3.6-8,8-8h437c4.4,0,8,3.6,8,8v20
						C973.9,1042.4,970.3,1046,965.9,1046z"/>
				</g>
			</g>
			<g>
				<g>
					<path class="st9" d="M965.9,1044h-437c-4.4,0-8-3.6-8-8V784c0-4.4,3.6-8,8-8h437c4.4,0,8,3.6,8,8v252
						C973.9,1040.4,970.3,1044,965.9,1044z"/>
				</g>
			</g>
		</g>
		<text transform="matrix(1 0 0 1 544.9001 805.3183)" class="st11 st3 st4">DISABILITY / CASE MANAGEMENT ACTIVITY</text>
		<text transform="matrix(1 0 0 1 872.3981 803.5582)" class="st2 st3 st15">DATE RANGE: </text>
		<text transform="matrix(1 0 0 1 937.3981 803.5582)" class="st5 st3 st15">1M</text>
		<g>
			<path class="st37" d="M942,1020H756c-3.9,0-7-3.1-7-7v-81.4c0-3.9,3.1-7,7-7h186.1c3.9,0,7,3.1,7,7v81.4
				C949,1016.9,945.9,1020,942,1020z"/>
			<text transform="matrix(1 0 0 1 762.9681 1004.7413)" class="st9 st6 st24">27</text>
			<text transform="matrix(1 0 0 1 762.9682 944.8104)" class="st9 st3 st15">DAYS SAVED — YTD</text>
		</g>
		<g>
			<path class="st13" d="M738,1020H551.9c-3.9,0-7-3.1-7-7v-81.4c0-3.9,3.1-7,7-7H738c3.9,0,7,3.1,7,7v81.4
				C745,1016.9,741.8,1020,738,1020z"/>
			<text transform="matrix(1 0 0 1 558.8999 1004.7413)" class="st9 st6 st24">47</text>
			<text transform="matrix(1 0 0 1 558.9001 944.8104)" class="st9 st3 st15">TOTAL NUMBER LOST DAYS</text>
			<text transform="matrix(1 0 0 1 558.9001 955.8104)" class="st9 st3 st15">BEFORE RTW — YTD</text>
		</g>
		<g>
			<path class="st39" d="M942,920.6H756c-3.9,0-7-3.1-7-7v-81.4c0-3.9,3.1-7,7-7h186.1c3.9,0,7,3.1,7,7v81.4
				C949,917.5,945.9,920.6,942,920.6z"/>
			<text transform="matrix(1 0 0 1 762.9681 905.3271)" class="st5 st6 st24">2</text>
			<text transform="matrix(1 0 0 1 762.9682 845.3962)" class="st40 st3 st15">CASES W/WORK RESTRICTIONS</text>
		</g>
		<g>
			<path class="st39" d="M738,920.6H551.9c-3.9,0-7-3.1-7-7v-81.4c0-3.9,3.1-7,7-7H738c3.9,0,7,3.1,7,7v81.4
				C745,917.5,741.8,920.6,738,920.6z"/>
			<text transform="matrix(1 0 0 1 558.8999 905.3271)" class="st5 st6 st24">7</text>
			<text transform="matrix(1 0 0 1 558.9001 845.3962)" class="st40 st3 st15">LOST TIME CASES</text>
		</g>
	</g>
	<g class="st51">
		<g>
			<g>
				<g>
					
						<linearGradient id="SVGID_13_" gradientUnits="userSpaceOnUse" x1="53.9" y1="-242" x2="506.9" y2="-242" gradientTransform="matrix(1 0 0 1 0 988)">
						<stop  offset="0" style="stop-color:#EEEEEA"/>
						<stop  offset="0.5" style="stop-color:#A7A9AC"/>
						<stop  offset="1" style="stop-color:#EEEEEA"/>
					</linearGradient>
					<path class="st57" d="M498.9,764h-437c-4.4,0-8-3.6-8-8v-20c0-4.4,3.6-8,8-8h437c4.4,0,8,3.6,8,8v20
						C506.9,760.4,503.3,764,498.9,764z"/>
				</g>
			</g>
			<g>
				<g>
					<path class="st9" d="M498.9,762h-437c-4.4,0-8-3.6-8-8V502c0-4.4,3.6-8,8-8h437c4.4,0,8,3.6,8,8v252
						C506.9,758.4,503.3,762,498.9,762z"/>
				</g>
			</g>
		</g>
		<text transform="matrix(1 0 0 1 77.9 523.3188)" class="st11 st3 st4">VISIT TYPES</text>
		<text transform="matrix(1 0 0 1 405.398 521.5587)" class="st2 st3 st15">DATE RANGE: </text>
		<text transform="matrix(1 0 0 1 470.398 521.5587)" class="st5 st3 st15">1M</text>
		<g>
			<text transform="matrix(1 0 0 1 99.9989 742.9993)" class="st40 st6 st35">1/1/20</text>
			<text transform="matrix(1 0 0 1 158.688 742.9993)" class="st40 st6 st35">1/2/20</text>
			<text transform="matrix(1 0 0 1 217.377 742.9993)" class="st40 st6 st35">1/3/20</text>
			<text transform="matrix(1 0 0 1 276.066 742.9993)" class="st40 st6 st35">1/4/20</text>
			<text transform="matrix(1 0 0 1 334.755 742.9993)" class="st40 st6 st35">1/5/20</text>
			<text transform="matrix(1 0 0 1 393.4441 742.9993)" class="st40 st6 st35">1/6/20</text>
			<text transform="matrix(1 0 0 1 452.1331 742.9993)" class="st40 st6 st35">1/7/20</text>
			<text transform="matrix(1 0 0 1 81.7189 629.5342)" class="st40 st6 st43">30</text>
			<text transform="matrix(1 0 0 1 81.7189 663.8107)" class="st40 st6 st43">20</text>
			<text transform="matrix(1 0 0 1 81.7189 698.0864)" class="st40 st6 st43">10</text>
			<text transform="matrix(1 0 0 1 85.6119 732.363)" class="st40 st6 st43">0</text>
			<g>
				<g>
					<g>
						<line class="st39" x1="96.9" y1="661.4" x2="97.4" y2="661.4"/>
						<line class="st44" x1="100.4" y1="661.4" x2="480" y2="661.4"/>
						<line class="st39" x1="481.5" y1="661.4" x2="482" y2="661.4"/>
					</g>
				</g>
				<g>
					<g>
						<line class="st39" x1="96.9" y1="695.7" x2="97.4" y2="695.7"/>
						<line class="st44" x1="100.4" y1="695.7" x2="480" y2="695.7"/>
						<line class="st39" x1="481.5" y1="695.7" x2="482" y2="695.7"/>
					</g>
				</g>
				<g>
					<line class="st39" x1="172.6" y1="724" x2="172.6" y2="730"/>
					<line class="st39" x1="113.9" y1="724" x2="113.9" y2="730"/>
					<line class="st39" x1="231.3" y1="724" x2="231.3" y2="730"/>
					<line class="st39" x1="290" y1="724" x2="290" y2="730"/>
					<line class="st39" x1="348.7" y1="724" x2="348.7" y2="730"/>
					<line class="st39" x1="407.3" y1="724" x2="407.3" y2="730"/>
					<line class="st39" x1="466" y1="723" x2="466" y2="730"/>
					<line class="st39" x1="96.9" y1="730" x2="482" y2="730"/>
				</g>
				<g>
					<g>
						<line class="st39" x1="96.9" y1="627.2" x2="97.4" y2="627.2"/>
						<line class="st44" x1="100.4" y1="627.2" x2="480" y2="627.2"/>
						<line class="st39" x1="481.5" y1="627.2" x2="482" y2="627.2"/>
					</g>
				</g>
			</g>
			<polyline class="st39" points="113.9,653.9 172.6,654.7 231.3,698.9 290,653.2 348.7,657.4 407.8,645 466,673.9 			"/>
			<polyline class="st39" points="113.9,642.1 172.6,670.6 231.3,706.2 290,667 348.7,703.7 407.8,710.3 466,720.6 			"/>
			<polyline class="st39" points="113.9,695.7 172.6,679.7 231.3,645.8 290,707.9 348.7,683 407.8,695.4 466,684.7 			"/>
			<polyline class="st45" points="113.9,711.2 172.6,686.2 231.3,713.7 290,695.4 348.7,672.5 407.8,705.4 466,695.4 			"/>
			<circle class="st46" cx="172.6" cy="686.2" r="4"/>
		</g>
		<g>
			<text transform="matrix(1 0 0 1 89.9 562.3623)" class="st40 st3 st7">SURVEILLANCE</text>
			<text transform="matrix(1 0 0 1 89.9 590.3623)" class="st5 st6 st17">64</text>
			<text transform="matrix(1 0 0 1 293.3184 562.3623)" class="st40 st3 st7">PRE-PLACEMENT</text>
			<text transform="matrix(1 0 0 1 293.3184 590.3623)" class="st5 st6 st17">45</text>
			<text transform="matrix(1 0 0 1 395.0276 562.3623)" class="st40 st3 st7">OTHER</text>
			<text transform="matrix(1 0 0 1 395.0276 590.3623)" class="st5 st6 st17">37</text>
			<g>
				<path class="st47" d="M171.6,544.2c2.2,0,4,1.8,4,4v50c0,2.2-1.8,4-4,4H82.9c-2.2,0-4-1.8-4-4v-50c0-2.2,1.8-4,4-4H171.6
					 M171.6,543.2H82.9c-2.8,0-5,2.2-5,5v50c0,2.8,2.2,5,5,5h88.7c2.8,0,5-2.2,5-5v-50C176.6,545.4,174.4,543.2,171.6,543.2
					L171.6,543.2z"/>
			</g>
			<path class="st5" d="M273.3,603.2h-88.7c-2.8,0-5-2.2-5-5v-50c0-2.8,2.2-5,5-5h88.7c2.8,0,5,2.2,5,5v50
				C278.3,600.9,276.1,603.2,273.3,603.2z"/>
			<g>
				<path class="st47" d="M375,544.2c2.2,0,4,1.8,4,4v50c0,2.2-1.8,4-4,4h-88.7c-2.2,0-4-1.8-4-4v-50c0-2.2,1.8-4,4-4H375
					 M375,543.2h-88.7c-2.8,0-5,2.2-5,5v50c0,2.8,2.2,5,5,5H375c2.8,0,5-2.2,5-5v-50C380,545.4,377.8,543.2,375,543.2L375,543.2z"/>
			</g>
			<g>
				<path class="st47" d="M476.7,544.2c2.2,0,4,1.8,4,4v50c0,2.2-1.8,4-4,4H388c-2.2,0-4-1.8-4-4v-50c0-2.2,1.8-4,4-4H476.7
					 M476.7,543.2H388c-2.8,0-5,2.2-5,5v50c0,2.8,2.2,5,5,5h88.7c2.8,0,5-2.2,5-5v-50C481.7,545.4,479.5,543.2,476.7,543.2
					L476.7,543.2z"/>
			</g>
			<text transform="matrix(1 0 0 1 191.6092 562.3623)" class="st9 st3 st7">INJURIES</text>
			<text transform="matrix(1 0 0 1 191.6092 590.3623)" class="st9 st6 st17">18</text>
		</g>
	</g>
	<polygon class="st58" points="3.7,1176.4 0,1176.4 0,1176.4 	"/>
	<g class="st51">
		<g>
			<g>
				<g>
					
						<linearGradient id="SVGID_14_" gradientUnits="userSpaceOnUse" x1="53.9" y1="322" x2="506.9" y2="322" gradientTransform="matrix(1 0 0 1 0 988)">
						<stop  offset="0" style="stop-color:#EEEEEA"/>
						<stop  offset="0.5" style="stop-color:#A7A9AC"/>
						<stop  offset="1" style="stop-color:#EEEEEA"/>
					</linearGradient>
					<path class="st59" d="M498.9,1328h-437c-4.4,0-8-3.6-8-8v-20c0-4.4,3.6-8,8-8h437c4.4,0,8,3.6,8,8v20
						C506.9,1324.4,503.3,1328,498.9,1328z"/>
				</g>
			</g>
			<g>
				<g>
					<path class="st9" d="M498.9,1326h-437c-4.4,0-8-3.6-8-8v-252c0-4.4,3.6-8,8-8h437c4.4,0,8,3.6,8,8v252
						C506.9,1322.4,503.3,1326,498.9,1326z"/>
				</g>
			</g>
		</g>
		<text transform="matrix(1 0 0 1 77.9 1087.3179)" class="st11 st3 st4">OCCUPATIONAL INJURY / ILLNESS ACTIVITY</text>
		<text transform="matrix(1 0 0 1 405.398 1085.5577)" class="st2 st3 st15">DATE RANGE: </text>
		<text transform="matrix(1 0 0 1 470.398 1085.5577)" class="st5 st3 st15">1M</text>
		<g>
			<text transform="matrix(1 0 0 1 89.9 1125.3613)" class="st40 st3 st7">EXAMS WITHIN</text>
			<text transform="matrix(1 0 0 1 89.9 1134.3613)" class="st40 st3 st7">DUE DATE</text>
			<text transform="matrix(1 0 0 1 89.9 1163.3613)" class="st37 st6 st17">52</text>
			<g>
				<path class="st47" d="M175.6,1108.2v67H82.9c-2.2,0-4-1.8-4-4v-59c0-2.2,1.8-4,4-4H175.6 M176.6,1107.2H82.9c-2.8,0-5,2.2-5,5
					v59c0,2.8,2.2,5,5,5h93.7V1107.2L176.6,1107.2z"/>
			</g>
			<path class="st37" d="M273.3,1176.2h-93.7v-69h93.7c2.8,0,5,2.2,5,5v59C278.3,1173.9,276.1,1176.2,273.3,1176.2z"/>
			<text transform="matrix(1 0 0 1 191.6092 1125.3613)" class="st9 st3 st7">IN COMPLIANCE</text>
			<text transform="matrix(1 0 0 1 191.6092 1163.3613)" class="st9 st6 st17">79</text>
			<text transform="matrix(1 0 0 1 227.3092 1151.3613)" class="st9 st6 st14">%</text>
			<text transform="matrix(1 0 0 1 293.3184 1125.3613)" class="st40 st3 st7">EXAMS PAST DUE</text>
			<text transform="matrix(1 0 0 1 293.3184 1163.3613)" class="st13 st6 st17">14</text>
			<g>
				<path class="st47" d="M379,1108.2v67h-92.7c-2.2,0-4-1.8-4-4v-59c0-2.2,1.8-4,4-4H379 M380,1107.2h-93.7c-2.8,0-5,2.2-5,5v59
					c0,2.8,2.2,5,5,5H380L380,1107.2L380,1107.2z"/>
			</g>
			<path class="st13" d="M476.7,1176.2H383v-69h93.7c2.8,0,5,2.2,5,5v59C481.7,1173.9,479.5,1176.2,476.7,1176.2z"/>
			<text transform="matrix(1 0 0 1 395.0276 1125.3613)" class="st9 st3 st7">OUT OF</text>
			<text transform="matrix(1 0 0 1 395.0276 1134.3613)" class="st9 st3 st7">COMPLIANCE</text>
			<text transform="matrix(1 0 0 1 395.0276 1163.3613)" class="st9 st6 st17">21</text>
			<text transform="matrix(1 0 0 1 430.7276 1151.3613)" class="st9 st6 st14">%</text>
		</g>
		<g>
			<path class="st12" d="M472.9,1303.2h-383c-6.6,0-12-5.4-12-12s5.4-12,12-12h383c6.6,0,12,5.4,12,12S479.5,1303.2,472.9,1303.2z"
				/>
			<path class="st12" d="M472.9,1273h-383c-6.6,0-12-5.4-12-12s5.4-12,12-12h383c6.6,0,12,5.4,12,12S479.5,1273,472.9,1273z"/>
			<path class="st12" d="M472.9,1242.8h-383c-6.6,0-12-5.4-12-12s5.4-12,12-12h383c6.6,0,12,5.4,12,12S479.5,1242.8,472.9,1242.8z"
				/>
			<path class="st12" d="M472.9,1212.7h-383c-6.6,0-12-5.4-12-12s5.4-12,12-12h383c6.6,0,12,5.4,12,12S479.5,1212.7,472.9,1212.7z"
				/>
			<path class="st13" d="M206,1303.2H89.9c-6.6,0-12-5.4-12-12s5.4-12,12-12H206c6.6,0,12,5.4,12,12S212.7,1303.2,206,1303.2z"/>
			<path class="st5" d="M110.7,1273H89.9c-6.6,0-12-5.4-12-12s5.4-12,12-12h20.8c6.6,0,12,5.4,12,12S117.4,1273,110.7,1273z"/>
			<path class="st5" d="M258.2,1242.8H89.9c-6.6,0-12-5.4-12-12s5.4-12,12-12h168.3c6.6,0,12,5.4,12,12S264.8,1242.8,258.2,1242.8z"
				/>
			<path class="st5" d="M348.4,1212.7H89.9c-6.6,0-12-5.4-12-12s5.4-12,12-12h258.5c6.6,0,12,5.4,12,12S355,1212.7,348.4,1212.7z"/>
			<text transform="matrix(1 0 0 1 89.9006 1203.4329)" class="st9 st3 st7">ASBESTOS</text>
			<text transform="matrix(1 0 0 1 89.9006 1233.5989)" class="st9 st3 st7">CADMIUM</text>
			<text transform="matrix(1 0 0 1 89.9006 1263.7646)" class="st9 st3 st7">LEAD</text>
			<text transform="matrix(1 0 0 1 128.5898 1265.9722)" class="st11 st6 st14">7</text>
			<text transform="matrix(1 0 0 1 223.9012 1296.1382)" class="st11 st6 st14">19</text>
			<text transform="matrix(1 0 0 1 276.039 1235.8062)" class="st11 st6 st14">23</text>
			<text transform="matrix(1 0 0 1 366.2457 1205.6412)" class="st11 st6 st14">39</text>
			<text transform="matrix(1 0 0 1 89.9006 1293.9307)" class="st9 st3 st7">OTHER</text>
		</g>
	</g>
</g>
<g id="Working">
	<g>
		<g>
			<g>
				<path class="st9" d="M1516.5,1018.6h-437c-4.4,0-8-3.6-8-8v-272c0-4.4,3.6-8,8-8h437c4.4,0,8,3.6,8,8v272
					C1524.5,1015,1520.9,1018.6,1516.5,1018.6z"/>
			</g>
		</g>
		<text transform="matrix(1 0 0 1 1095.509 762.9185)" class="st40 st3 st4">SERVICES / TESTS PROVIDED</text>
		<g>
			<g>
				<g>
					<rect x="1095.5" y="779.8" class="st12" width="99.7" height="60"/>
				</g>
			</g>
		</g>
		<text transform="matrix(1 0 0 1 1107.5092 798.9626)" class="st40 st3 st7">TEST-1</text>
		<text transform="matrix(1 0 0 1 1107.5092 826.9626)" class="st8 st6 st17">127</text>
		<g>
			<g>
				<g>
					<rect x="1197.5" y="779.8" class="st12" width="98.7" height="60"/>
				</g>
			</g>
		</g>
		<text transform="matrix(1 0 0 1 1209.5432 798.9626)" class="st40 st3 st7">TEST-2</text>
		<text transform="matrix(1 0 0 1 1209.5432 826.9626)" class="st8 st6 st17">52</text>
		<g>
			<g>
				<g>
					<rect x="1298.6" y="779.8" class="st12" width="98.7" height="60"/>
				</g>
			</g>
		</g>
		<text transform="matrix(1 0 0 1 1310.5773 798.9626)" class="st40 st3 st7">TEST-3</text>
		<text transform="matrix(1 0 0 1 1310.5773 826.9626)" class="st8 st6 st17">31</text>
		<g>
			<g>
				<g>
					<rect x="1399.6" y="779.8" class="st12" width="99.7" height="60"/>
				</g>
			</g>
		</g>
		<text transform="matrix(1 0 0 1 1411.6115 798.9626)" class="st40 st3 st7">TEST-4</text>
		<text transform="matrix(1 0 0 1 1411.6115 826.9626)" class="st8 st6 st17">27</text>
		<g>
			<g>
				<g>
					<rect x="1095.5" y="841.8" class="st12" width="99.7" height="60"/>
				</g>
			</g>
		</g>
		<text transform="matrix(1 0 0 1 1107.5092 860.9626)" class="st40 st3 st7">TEST-5</text>
		<text transform="matrix(1 0 0 1 1107.5092 888.9626)" class="st8 st6 st17">11</text>
		<g>
			<g>
				<g>
					<rect x="1197.5" y="841.8" class="st8" width="98.7" height="60"/>
				</g>
			</g>
		</g>
		<text transform="matrix(1 0 0 1 1209.5432 860.9626)" class="st9 st3 st7">TEST-6</text>
		<text transform="matrix(1 0 0 1 1209.5432 888.9626)" class="st9 st6 st17">9</text>
		<g>
			<g>
				<g>
					<rect x="1298.6" y="841.8" class="st12" width="98.7" height="60"/>
				</g>
			</g>
		</g>
		<text transform="matrix(1 0 0 1 1310.5773 860.9626)" class="st40 st3 st7">TEST-7</text>
		<text transform="matrix(1 0 0 1 1310.5773 888.9626)" class="st8 st6 st17">6</text>
		<g>
			<g>
				<g>
					<rect x="1399.6" y="841.8" class="st12" width="99.7" height="60"/>
				</g>
			</g>
		</g>
		<text transform="matrix(1 0 0 1 1411.6115 860.9626)" class="st40 st3 st7">TEST-OTHER</text>
		<text transform="matrix(1 0 0 1 1411.6115 888.9626)" class="st8 st6 st17">42</text>
		<g>
			<polyline class="st39" points="1096.5,925.8 1096.5,986.6 1499.3,986.6 			"/>
			<line class="st39" x1="1163.6" y1="925.8" x2="1163.6" y2="986.6"/>
			<line class="st39" x1="1230.7" y1="925.8" x2="1230.7" y2="986.6"/>
			<line class="st39" x1="1297.8" y1="925.8" x2="1297.8" y2="986.6"/>
			<line class="st39" x1="1364.8" y1="925.8" x2="1364.8" y2="986.6"/>
			<line class="st39" x1="1431.9" y1="925.8" x2="1431.9" y2="986.6"/>
		</g>
		<polyline class="st60" points="1096.5,949.6 1163.6,966.8 1230.7,947.3 1297.8,968.6 1364.8,971.9 1431.9,940.5 1499.3,971.1 		
			"/>
		<circle class="st61" cx="1364.8" cy="971.9" r="4"/>
		<text transform="matrix(1 0 0 1 1094.1941 999.5995)" class="st40 st6 st35">1/1/20</text>
		<text transform="matrix(1 0 0 1 1157.264 999.5995)" class="st40 st6 st35">1/2/20</text>
		<text transform="matrix(1 0 0 1 1220.3347 999.5995)" class="st40 st6 st35">1/3/20</text>
		<text transform="matrix(1 0 0 1 1283.4053 999.5995)" class="st40 st6 st35">1/4/20</text>
		<text transform="matrix(1 0 0 1 1346.4756 999.5995)" class="st40 st6 st35">1/5/20</text>
		<text transform="matrix(1 0 0 1 1409.546 999.5995)" class="st40 st6 st35">1/6/20</text>
		<text transform="matrix(1 0 0 1 1472.6167 999.5995)" class="st40 st6 st35">1/7/20</text>
	</g>
</g>
<text transform="matrix(1 0 0 1 1080.9 717.5)" class="st62 st63">Extra:</text>
</svg>
